<svg width="1440" height="800" viewBox="0 0 1440 800" xmlns="http://www.w3.org/2000/svg">
  <path d="M0,192L48,197.3C96,203,192,213,288,229.3C384,245,480,267,576,250.7C672,235,768,181,864,181.3C960,181,1056,235,1152,234.7C1248,235,1344,181,1392,154.7L1440,128L1440,320L1392,320C1344,320,1248,320,1152,320C1056,320,960,320,864,320C768,320,672,320,576,320C480,320,384,320,288,320C192,320,96,320,48,320L0,320Z" fill="currentColor" opacity="0.1"></path>
  <path d="M0,384L48,373.3C96,363,192,341,288,341.3C384,341,480,363,576,373.3C672,384,768,384,864,362.7C960,341,1056,299,1152,277.3C1248,256,1344,256,1392,256L1440,256L1440,320L1392,320C1344,320,1248,320,1152,320C1056,320,960,320,864,320C768,320,672,320,576,320C480,320,384,320,288,320C192,320,96,320,48,320L0,320Z" fill="currentColor" opacity="0.1"></path>
</svg>
